
        <svg xmlns="http://www.w3.org/2000/svg" xmlns:xlink="http://www.w3.org/1999/xlink" version="1.1" width="3162.0143203488274" 
        height="931.5823420057604" viewBox="0 0 3162.0143203488274 931.5823420057604">
			
			<g transform="scale(8.100716017441394) translate(10, 10)">
				<defs id="SvgjsDefs4292"><linearGradient id="SvgjsLinearGradient4299"><stop id="SvgjsStop4300" stop-color="#8f5e25" offset="0"></stop><stop id="SvgjsStop4301" stop-color="#fbf4a1" offset="0.5"></stop><stop id="SvgjsStop4302" stop-color="#8f5e25" offset="1"></stop></linearGradient></defs><g id="SvgjsG4293" featureKey="rootContainer" transform="matrix(1,0,0,1,0,0)" fill="#1cacf9"><rect y="0" height="1" width="1" opacity="0"></rect><rect y="90" width="370" height="5"></rect></g><g id="SvgjsG4294" featureKey="symbolFeature-0" transform="matrix(0.6598943143987218,0,0,0.6598943143987218,-2.9530260500154655,15.937830582166125)" fill="url(#SvgjsLinearGradient4299)"><g xmlns="http://www.w3.org/2000/svg" display="none"><path display="inline" d="M95.438,80.064H33.325V68.491l12.114-5.922c0.251-1.752,0.938-4.743,2.756-5.828v-3.81   c-0.067-0.41-0.265-1.121-0.566-1.498c-0.932-1.165-2.117-4.371-2.561-6.852c-0.423-0.493-1.016-1.379-1.311-2.703   c-0.035-0.159-0.081-0.349-0.132-0.562c-0.601-2.493-1.053-4.842,0.001-6.182c0.183-0.232,0.401-0.421,0.646-0.564   c-0.357-3.267-0.914-10.742,1.024-13.812c2.468-3.907,8.334-8.259,12.807-8.259h2.645c4.473,0,10.34,4.353,12.808,8.259   c1.938,3.07,1.382,10.545,1.024,13.812c0.245,0.143,0.463,0.333,0.646,0.564c1.055,1.339,0.602,3.688,0,6.182   c-0.052,0.213-0.098,0.403-0.133,0.561c-0.294,1.324-0.886,2.209-1.309,2.703c-0.444,2.486-1.631,5.693-2.562,6.854   c-0.298,0.373-0.495,1.081-0.563,1.497v3.808c1.796,1.073,2.487,4.006,2.745,5.767c2.253,0.929,8.825,3.633,14.924,6.101   c8.072,3.27,9.745,8.237,9.812,8.447c0.168,0.511,0.177,1.309-0.312,1.985C97.488,79.507,96.799,80.064,95.438,80.064z    M36.325,77.064h58.491c-0.813-1.308-2.874-3.756-7.615-5.676c-7.518-3.043-15.754-6.443-15.754-6.443l-0.835-0.345l-0.086-0.901   c-0.205-2.149-0.942-4.151-1.416-4.377h-1.5l0.048-1.49l0.012-5.194c0.023-0.189,0.259-1.885,1.21-3.077   c0.488-0.609,1.673-3.515,2.015-5.896l0.084-0.586l0.462-0.371l0,0c-0.003,0,0.498-0.462,0.725-1.481   c0.038-0.173,0.088-0.381,0.145-0.614c0.364-1.512,0.553-2.588,0.562-3.215l-1.713,0.49l0.271-2.27   c0.557-3.993,0.938-11.124-0.41-13.259c-1.963-3.107-6.983-6.86-10.271-6.86h-2.645c-3.288,0-8.307,3.753-10.271,6.861   c-1.348,2.135-0.967,9.265-0.41,13.258l0.319,2.283l-1.761-0.503c0.009,0.626,0.197,1.703,0.561,3.215   c0.056,0.233,0.106,0.441,0.145,0.613c0.228,1.024,0.733,1.485,0.755,1.505l0.407,0.364l0.11,0.569   c0.34,2.376,1.525,5.284,2.013,5.894c0.953,1.192,1.188,2.888,1.212,3.078l0.012,0.186v6.509h-1.5   c-0.426,0.216-1.164,2.219-1.37,4.368l-0.08,0.836l-11.919,5.828V77.064z"></path><path display="inline" d="M21.687,90.104H11.403v-10.06H1.343V69.76h10.06V59.699h10.284V69.76h10.06v10.284h-10.06V90.104z    M14.403,87.104h4.284v-10.06h10.06V72.76h-10.06V62.699h-4.284V72.76H4.343v4.284h10.06V87.104z"></path></g><g xmlns="http://www.w3.org/2000/svg" display="none"><g display="inline"><path d="M87.762,12.238c-4.599-4.599-10.713-7.132-17.216-7.132c-4.055,0-7.958,0.985-11.438,2.842l-0.005-0.008    c-9.607,5.113-19.633,12.762-28.993,22.12c-9.107,9.107-16.576,18.827-21.679,28.183c-5.538,9.34-4.323,21.604,3.7,29.628    c4.6,4.598,10.713,7.13,17.216,7.13c6.502,0,12.616-2.532,17.216-7.13c6.831-6.835,8.716-16.746,5.713-25.309    c-0.456-2.805,0.457-5.666,2.468-7.677c1.988-1.987,4.729-2.899,7.519-2.495l0.004-0.024c2.619,0.944,5.409,1.438,8.276,1.438    c6.503,0,12.617-2.532,17.217-7.131C97.255,37.179,97.255,21.732,87.762,12.238z M43.736,85.042    C39.893,88.884,34.783,91,29.349,91c-5.435,0-10.544-2.116-14.388-5.958c-6.457-6.459-7.657-16.212-3.604-23.896l0.039,0.021    c0.188-0.355,0.386-0.713,0.581-1.07c0.828-1.362,1.807-2.657,2.983-3.833c3.844-3.844,8.954-5.96,14.388-5.96    s10.544,2.117,14.389,5.96C51.667,64.196,51.667,77.107,43.736,85.042z M51.918,52.056c-1.26,1.261-2.205,2.759-2.842,4.373    c-0.753-1.044-1.572-2.056-2.51-2.994c-4.6-4.6-10.714-7.132-17.217-7.132c-3.438,0-6.763,0.714-9.817,2.061    c3.863-5.226,8.374-10.442,13.407-15.476c5.004-5.004,10.195-9.495,15.397-13.348c-3.979,8.945-2.332,19.807,4.993,27.131    c0.936,0.936,1.937,1.781,2.987,2.541C54.688,49.85,53.178,50.797,51.918,52.056z M84.934,43.843    c-3.844,3.843-8.954,5.96-14.389,5.96s-10.544-2.117-14.388-5.959c-7.933-7.933-7.933-20.843,0-28.777    c3.844-3.843,8.954-5.96,14.389-5.96s10.544,2.117,14.388,5.96C92.866,23,92.866,35.91,84.934,43.843z"></path><path d="M36,56H24v9h-9v12h9v9h12v-9h9V65h-9V56z M28,60h4v5h-4V60z M32,69v4h-4v-4H32z M19,73v-4h5v4H19z M32,82h-4v-5h4V82z     M41,69v4h-5v-4H41z"></path><path d="M78.001,31.523c-1.438,0-2.792,0.56-3.812,1.579c-2.098,2.101-2.098,5.519,0.002,7.621    c1.019,1.018,2.372,1.579,3.812,1.579s2.793-0.562,3.81-1.58c1.017-1.018,1.577-2.372,1.576-3.811c0-1.44-0.562-2.793-1.577-3.807    C80.795,32.084,79.441,31.523,78.001,31.523z M78.982,37.894c-0.524,0.527-1.44,0.523-1.963,0    c-0.541-0.542-0.541-1.424-0.002-1.964c0.263-0.262,0.612-0.407,0.983-0.407c0.37,0,0.718,0.144,0.981,0.409    c0.262,0.261,0.406,0.609,0.406,0.979C79.389,37.282,79.245,37.631,78.982,37.894z"></path><path d="M64.213,17.735c-1.438,0-2.79,0.56-3.809,1.577c-1.018,1.018-1.578,2.371-1.578,3.811c0,1.44,0.561,2.793,1.578,3.81    c1.019,1.019,2.372,1.58,3.811,1.58c1.439,0,2.793-0.562,3.808-1.578c1.02-1.018,1.581-2.372,1.581-3.813    c-0.001-1.44-0.562-2.792-1.578-3.804C67.008,18.297,65.653,17.735,64.213,17.735z M65.193,24.106    c-0.524,0.525-1.434,0.524-1.961-0.002c-0.263-0.262-0.406-0.61-0.406-0.981c0-0.371,0.145-0.72,0.405-0.981    c0.263-0.262,0.611-0.406,0.981-0.406s0.719,0.145,0.985,0.412c0.261,0.26,0.405,0.607,0.405,0.976    C65.604,23.493,65.459,23.841,65.193,24.106z"></path><path d="M64.215,31.523c-1.438,0-2.792,0.56-3.81,1.576c-1.02,1.018-1.58,2.372-1.58,3.812c0,1.439,0.561,2.792,1.579,3.812    c1.019,1.018,2.371,1.578,3.81,1.578c1.44,0,2.794-0.562,3.809-1.579c1.019-1.018,1.58-2.371,1.581-3.811    c0.001-1.439-0.559-2.792-1.577-3.811C67.007,32.083,65.653,31.523,64.215,31.523z M65.194,37.894    c-0.525,0.524-1.438,0.523-1.961,0.001c-0.263-0.264-0.408-0.614-0.408-0.985c0-0.371,0.145-0.719,0.406-0.98    c0.263-0.262,0.612-0.407,0.983-0.407s0.722,0.145,0.984,0.407c0.261,0.261,0.404,0.609,0.404,0.979    C65.604,37.281,65.459,37.63,65.194,37.894z"></path><path d="M78,17.735c-1.438,0-2.791,0.56-3.811,1.578c-2.097,2.1-2.098,5.518,0.001,7.622c1.019,1.018,2.371,1.578,3.811,1.578    c1.44,0,2.795-0.562,3.811-1.58c1.018-1.017,1.577-2.37,1.578-3.809c0-1.439-0.56-2.792-1.575-3.808    C80.796,18.297,79.441,17.735,78,17.735z M78.981,24.106c-0.523,0.524-1.439,0.523-1.961,0.001    c-0.542-0.543-0.542-1.426-0.003-1.966c0.263-0.262,0.611-0.406,0.982-0.406c0.372,0,0.722,0.145,0.985,0.409    c0.261,0.261,0.404,0.608,0.404,0.979C79.39,23.494,79.245,23.842,78.981,24.106z"></path></g></g><g xmlns="http://www.w3.org/2000/svg"><g><g><path d="M23.963,85.631h-6.837V65.844h6.837V85.631z M20.126,82.631h0.837V68.844h-0.837V82.631z"></path><path d="M30.029,79.264H10.5v-6.838h19.529V79.264z M13.5,76.264h13.529v-0.838H13.5V76.264z"></path></g><g><path d="M72.85,6.151l-9.817-3.026l-1.987,6.447l9.817,3.026L72.85,6.151z M68.88,8.847l-4.085-1.259l0.22-0.713L69.1,8.134     L68.88,8.847z"></path><path d="M52.86,9.572l-1.986-6.447l-9.817,3.026l1.986,6.447L52.86,9.572z M48.891,6.875l0.22,0.713l-4.084,1.259l-0.22-0.713     L48.891,6.875z"></path><g><path d="M20.543,59.217c-8.859,0.002-16.068,7.211-16.068,16.07c0,8.86,7.209,16.068,16.069,16.068s16.069-7.208,16.069-16.068      C36.613,66.426,29.404,59.217,20.543,59.217z M20.544,88.355c-7.206,0-13.069-5.862-13.069-13.068      c0-7.205,5.863-13.068,13.069-13.07c7.206,0,13.069,5.863,13.07,13.07C33.613,82.493,27.75,88.355,20.544,88.355z"></path><path d="M82.554,28.79c0.05-0.166,0.099-0.332,0.149-0.503c2.759-9.325-3.364-17.46-8.97-19.187l-0.883,2.867      c4.166,1.284,8.821,7.559,7.161,14.693c-6.394-4.916-14.389-7.849-23.059-7.849s-16.665,2.932-23.058,7.848      c-1.661-7.134,2.995-13.409,7.162-14.692L40.174,9.1c-5.606,1.727-11.73,9.862-8.97,19.187c0.051,0.171,0.1,0.476,0.149,0.643      C23.793,35.864,19.044,46,19.044,57h3c0-10,3.927-18.517,10.265-24.84c1.588,5.374,2.59,8.749,6.132,21.062      c1.866,6.488,6.267,11.39,11.759,13.643c-4.73,2.453-7.951,7.369-7.951,13.055C42.249,88.041,49,94.639,57,94.64v-0.005      c21,0,37.887-17.011,37.887-37.914C94.887,45.678,90.114,35.725,82.554,28.79z M41.324,52.323      c-3.84-13.35-4.697-16.284-6.548-22.542c6.035-4.977,13.763-7.97,22.178-7.97c8.415,0,16.144,2.993,22.179,7.97      c-1.859,6.283-2.692,9.216-6.526,22.542C70.221,60.615,65,65.182,57,65.182v-0.006c0,0-0.062,0.003-0.084,0.003      C49.916,65.148,43.496,59.873,41.324,52.323z M56.954,91.631c-6.467,0-11.729-5.262-11.729-11.729      c0-6.445,5.229-11.689,11.667-11.724c0.021,0,0.041,0.003,0.062,0.003c9.018,0,15.765-5.478,18.512-15.028      c3.537-12.296,4.538-15.737,6.133-21.133c6.338,6.324,10.266,15.062,10.266,24.701C91.863,75.971,76.203,91.631,56.954,91.631z"></path></g></g></g></g></g><g id="SvgjsG4295" featureKey="nameFeature-0" transform="matrix(0.6653392850404425,0,0,0.6653392850404425,76.98501512120968,35.16819137609802)" fill="#1cacf9"><path d="M11.094 16.875 l0 -15.547 l-6.5625 0 l0 37.344 l6.5625 0 l0 -21.797 z M28.984 1.328000000000003 l0 15.547 l-11.406 0 l0 6.0938 l11.406 0 l0 15.703 l6.4844 0 l0 -37.344 l-6.4844 0 z M43.0938 1.4059999999999988 l27.813 0 l0 5.9375 l-27.813 0 l0 -5.9375 z M43.0938 32.6562 l27.734 0 l0 5.9375 l-27.734 0 l0 -5.9375 z M43.0938 16.875 l25.078 0 l0 5.8594 l-25.078 0 l0 -5.8594 z M104.703 38.5937 l7.0313 0 l-13.594 -37.266 l-7.1094 0 l7.8906 22.266 z M75.9531 38.5937 l6.875 0 l8.125 -19.844 l-3.3594 -8.9063 z M118.0313 1.4059999999999988 l6.4063 0 l0 31.25 l19.531 0 l0 5.9375 l-25.938 0 l0 -37.188 z M171.281 7.5 l11.797 0 l0 -6.0938 l-30.156 0 l0 6.0938 l18.359 0 z M164.719 13.594000000000001 l6.5625 0 l0 25 l-6.5625 0 l0 -25 z M196.094 16.875 l0 -15.547 l-6.5625 0 l0 37.344 l6.5625 0 l0 -21.797 z M213.984 1.328000000000003 l0 15.547 l-11.406 0 l0 6.0938 l11.406 0 l0 15.703 l6.4844 0 l0 -37.344 l-6.4844 0 z M256.609 25 c-0.36461 -0.98961 -0.88531 -1.8488 -1.5624 -2.578 c-0.46875 -0.52086 -1.224 -1.1198 -2.2656 -1.797 c-1.1459 -0.57289 -2.1615 -1.0156 -3.0469 -1.3281 c0.625 -0.36461 1.3021 -0.78125 2.0313 -1.25 c0.72914 -0.625 1.276 -1.224 1.6406 -1.7969 c0.46875 -0.625 0.85938 -1.3802 1.1719 -2.2656 c0.3125 -0.9375 0.46875 -1.9531 0.46875 -3.0469 c0 -2.9166 -1.0938 -5.2344 -3.2813 -6.9531 s-5.1563 -2.5781 -8.9063 -2.5781 l-14.453 0 l0 5.7813 l13.672 0 c1.9791 0 3.5938 0.41664 4.8438 1.25 c1.0938 0.83336 1.6406 2.0313 1.6406 3.5938 c0 1.7709 -0.625 3.0469 -1.875 3.8281 c-1.3021 0.83336 -2.9948 1.25 -5.0782 1.25 l-13.203 0 l0 5.4688 l14.609 0 c2.5 0 4.401 0.44273 5.7031 1.3281 c1.25 0.9375 1.875 2.1875 1.875 3.75 c0 1.6666 -0.625 2.9427 -1.875 3.828 c-1.3021 0.88539 -3.0469 1.3281 -5.2344 1.3281 l-15.078 0 l0 5.7813 l15 0 c2.0313 0 3.9063 -0.23438 5.625 -0.70313 c1.7709 -0.52086 3.2031 -1.1719 4.2969 -1.9531 s2.0313 -1.849 2.8125 -3.2031 c0.625 -1.25 0.9375 -2.7084 0.9375 -4.375 c0 -1.3021 -0.15625 -2.4219 -0.46875 -3.3594 z M294.781 38.5937 l-10.078 -14.063 c1.3541 -0.41664 2.552 -0.91141 3.5937 -1.4843 c1.1459 -0.72914 2.0834 -1.5364 2.8125 -2.4218 c0.83336 -0.98961 1.4323 -2.0573 1.797 -3.2032 c0.46875 -1.25 0.70313 -2.6563 0.70313 -4.2188 c0 -1.8229 -0.3125 -3.4635 -0.9375 -4.9219 c-0.625 -1.4063 -1.5365 -2.6302 -2.7344 -3.6719 c-1.1459 -0.98961 -2.6042 -1.7709 -4.3751 -2.3438 c-1.8229 -0.57289 -3.75 -0.85938 -5.7813 -0.85938 l-16.563 0 l0 5.9375 l16.016 0 c2.4479 0 4.3489 0.52086 5.703 1.5625 s2.0313 2.6041 2.0313 4.6875 c0 1.9271 -0.67711 3.4375 -2.0313 4.5313 c-1.3541 1.1459 -3.2291 1.7188 -5.625 1.7188 l-16.094 0 l0 18.75 l6.4844 0 l0 -12.969 l8.2031 0 l9.1406 12.969 l7.7344 0 l0 0 z M319.281 16.875 l0 -15.547 l-6.5625 0 l0 37.344 l6.5625 0 l0 -21.797 z M365.813 27.344 c-0.98961 2.3959 -2.3438 4.375 -4.0625 5.9375 c-1.7709 1.6666 -3.8542 2.9688 -6.2501 3.9063 s-5.0781 1.4063 -8.0469 1.4063 l-8.6719 0 l0 -5.9375 l8.5938 0 c1.9791 0 3.776 -0.3125 5.3906 -0.9375 c1.5625 -0.625 2.9166 -1.5104 4.0625 -2.6563 s2.0313 -2.5 2.6563 -4.0625 s0.9375 -3.2813 0.9375 -5.1563 c0 -1.8229 -0.3125 -3.5156 -0.9375 -5.0781 c-0.625 -1.6146 -1.5104 -2.9427 -2.6563 -3.9844 c-1.0416 -1.0938 -2.3958 -1.9791 -4.0624 -2.6563 c-1.6666 -0.625 -3.4635 -0.9375 -5.3906 -0.9375 l-8.5938 0 l0 -5.9375 l8.6719 0 c2.7604 0 5.4166 0.49477 7.9688 1.4844 c2.3959 0.88539 4.5052 2.2135 6.3281 3.9844 c1.7709 1.6146 3.125 3.5938 4.0625 5.9375 c0.98961 2.3959 1.4844 4.8438 1.4844 7.3438 c0 2.7084 -0.49477 5.1563 -1.4844 7.3438 z M391.875 22.891 l13.828 0 l0 -5.7813 l-13.828 0 l0 5.7813 z M405.703 27.422 l-5.7813 0.000076294 l0 5.3125 l-5.7031 0 c-1.9791 0 -3.75 -0.3125 -5.3125 -0.9375 c-1.5625 -0.57289 -2.9427 -1.4323 -4.1406 -2.5781 c-1.0938 -1.1979 -1.9531 -2.552 -2.5781 -4.0624 c-0.625 -1.4584 -0.9375 -3.1511 -0.9375 -5.0782 c0 -1.8229 0.3125 -3.5156 0.9375 -5.0781 c0.67711 -1.6666 1.5365 -3.0208 2.5781 -4.0624 c1.1459 -1.1459 2.5261 -2.0573 4.1407 -2.7345 c1.5625 -0.625 3.3334 -0.9375 5.3125 -0.9375 l11.406 0.078125 l0 -5.9375 l-11.406 -0.078125 c-2.9166 0 -5.5989 0.46875 -8.0469 1.4063 c-2.3959 0.9375 -4.4792 2.2396 -6.2501 3.9063 c-1.7188 1.6666 -3.099 3.6458 -4.1406 5.9374 c-0.9375 2.2396 -1.4063 4.6875 -1.4063 7.3438 s0.46875 5.1302 1.4063 7.4219 c1.0416 2.3959 2.4219 4.375 4.1406 5.9375 c1.5625 1.5625 3.6459 2.8906 6.25 3.9844 c2.5 0.9375 5.1823 1.4063 8.0469 1.4063 l11.484 0 l0 -11.25 z M413.0938 1.4059999999999988 l27.813 0 l0 5.9375 l-27.813 0 l0 -5.9375 z M413.0938 32.6562 l27.734 0 l0 5.9375 l-27.734 0 l0 -5.9375 z M413.0938 16.875 l25.078 0 l0 5.8594 l-25.078 0 l0 -5.8594 z"></path></g>
			</g>
		</svg>
	